<?xml version="1.0" encoding="UTF-8"?>
<svg width="302px" height="344px" viewBox="0 0 302 344" version="1.1" xmlns="http://www.w3.org/2000/svg" xmlns:xlink="http://www.w3.org/1999/xlink">
    <title>Oval</title>
    <defs>
        <rect id="path-1" x="0" y="-5.68434189e-14" width="302" height="343.452915" rx="4"/>
    </defs>
    <g id="Page-1" stroke="none" stroke-width="1" fill="none" fill-rule="evenodd">
        <g id="Oval">
            <mask id="mask-2" fill="white">
                <use xlink:href="#path-1"/>
            </mask>
            <g id="Mask"/>
            <path d="M255,371.226457 C352.754401,371.226457 419,250.144302 419,161.226457 C419,72.3086127 339.754401,0.226457399 242,0.226457399 C144.245599,0.226457399 203,141.226457 65,161.226457 C-73,181.226457 157.245599,371.226457 255,371.226457 Z" fill="#20207D" opacity="0.289571605" mask="url(#mask-2)"/>
            <g id="Group" mask="url(#mask-2)" stroke="#FFFFFF">
                <g transform="translate(40.224487, 0.689989)">
                    <path d="M0,0 C20.7619817,49.987168 40.9158278,82.4001473 60.4615385,97.2389381 C103.211054,129.693686 158.54359,116.212389 204.225641,166.017699 C238.330938,203.201338 257.589058,237.195438 262,268" id="Path"/>
                    <path d="M131.786596,0 C131.786596,0 110.266786,31.8232539 143.868252,78.1100917 C158.187252,97.8348624 197.564501,114.798165 262,129" id="Path-2"/>
                    <path d="M189,0 C189.641027,23.2983171 194.1472,40.7149837 202.518519,52.25 C210.889837,63.7850163 230.716998,78.0350163 262,95" id="Path-3"/>
                    <path d="M216,0 C222.884349,8.11173136 229.198075,14.4773228 234.941176,19.0967742 C240.684278,23.7162256 249.703886,29.6839676 262,37" id="Path-4"/>
                </g>
            </g>
        </g>
    </g>
</svg>